<mxfile host="app.diagrams.net" modified="2023-03-05T08:38:21.155Z" agent="5.0 (Windows)" etag="QF3-1Zs-YuBz8owPPRGF" version="21.0.2" type="github">
  <diagram name="第 1 页" id="laoeZc8yE4lGpE7v5CXU">
    <mxGraphModel dx="1434" dy="754" grid="1" gridSize="10" guides="1" tooltips="1" connect="1" arrows="1" fold="1" page="1" pageScale="1" pageWidth="827" pageHeight="1169" math="0" shadow="0">
      <root>
        <mxCell id="0" />
        <mxCell id="1" parent="0" />
        <mxCell id="CpxjNYqMOLAFewP2eBRz-1" value="" style="rounded=0;whiteSpace=wrap;html=1;" vertex="1" parent="1">
          <mxGeometry x="140" y="250" width="120" height="280" as="geometry" />
        </mxCell>
      </root>
    </mxGraphModel>
  </diagram>
</mxfile>
